<?xml version="1.0" standalone="no"?>
<!DOCTYPE svg PUBLIC "-//W3C//DTD SVG 20010904//EN"
 "http://www.w3.org/TR/2001/REC-SVG-20010904/DTD/svg10.dtd">
<svg version="1.0" xmlns="http://www.w3.org/2000/svg"
 width="167.000000pt" height="167.000000pt" viewBox="0 0 167.000000 167.000000"
 preserveAspectRatio="xMidYMid meet">
<metadata>
Created by potrace 1.14, written by Peter Selinger 2001-2017
</metadata>
<g transform="translate(0.000000,167.000000) scale(0.100000,-0.100000)"
fill="#000000" stroke="none">
<path d="M635 1553 c-22 -4 -68 -63 -80 -103 -16 -51 -47 -101 -68 -109 -12
-5 -52 -11 -89 -15 -37 -3 -78 -10 -91 -15 -55 -21 -70 -83 -44 -172 27 -89
17 -117 -66 -183 -49 -40 -75 -78 -72 -106 1 -8 3 -22 3 -31 2 -17 32 -51 101
-113 50 -44 56 -70 35 -149 -8 -29 -14 -71 -14 -94 0 -36 5 -46 30 -65 33 -24
37 -25 122 -33 95 -8 103 -15 150 -112 22 -49 48 -94 57 -101 29 -23 102 -9
171 33 34 21 74 38 89 37 15 0 59 -19 100 -43 117 -67 153 -56 212 68 22 46
50 90 62 98 13 8 53 17 89 19 89 7 135 27 144 63 9 35 10 76 1 89 -9 16 -19
75 -19 114 1 30 11 44 66 95 114 106 115 131 11 229 -84 80 -91 98 -67 176 17
57 17 122 1 148 -18 29 -53 42 -128 48 -94 8 -119 20 -140 68 -27 62 -34 80
-33 87 1 4 -14 23 -33 42 -30 31 -38 34 -72 30 -21 -3 -68 -23 -106 -45 -37
-22 -78 -40 -91 -40 -13 0 -54 18 -92 40 -69 41 -101 51 -139 45z m119 -75
c96 -58 135 -58 230 0 39 23 78 42 88 42 18 0 65 -55 60 -71 -1 -5 2 -9 7 -9
5 0 11 -14 15 -31 8 -40 42 -88 72 -99 13 -5 61 -14 106 -20 64 -7 87 -15 100
-31 19 -22 19 -25 -6 -139 -17 -81 -5 -116 56 -169 106 -91 111 -110 41 -173
-79 -73 -103 -99 -104 -119 -1 -10 -2 -25 -2 -31 -1 -7 5 -44 13 -83 18 -90
18 -97 2 -117 -14 -16 -29 -20 -146 -33 -85 -10 -100 -24 -141 -126 -44 -113
-58 -117 -176 -48 -78 46 -118 49 -180 14 -82 -47 -127 -65 -144 -59 -9 4 -36
48 -60 99 -42 87 -47 94 -87 109 -24 8 -70 17 -103 19 -62 4 -100 18 -107 39
-3 7 3 47 12 88 14 64 17 108 11 142 0 4 -33 38 -71 75 -39 38 -72 79 -75 92
-4 20 9 38 70 97 41 39 76 77 76 83 5 42 3 64 -11 131 -12 53 -14 82 -7 97 11
24 51 40 107 42 111 4 134 20 182 120 22 47 45 92 50 99 18 21 50 13 122 -30z"/>
<path d="M717 1354 c-123 -42 -196 -91 -273 -185 -42 -51 -83 -140 -98 -208
-13 -63 -14 -200 -2 -220 3 -4 8 -23 11 -41 8 -47 69 -159 108 -201 81 -86
171 -140 278 -169 57 -16 202 -16 258 0 184 50 337 202 383 380 46 176 -5 370
-130 496 -73 73 -78 77 -150 114 -122 62 -266 75 -385 34z m269 -28 c157 -42
293 -167 345 -316 91 -266 -63 -563 -333 -639 -71 -20 -213 -21 -263 -1 -16 6
-38 13 -48 15 -76 16 -215 145 -264 247 -112 229 -20 515 205 643 104 60 249
80 358 51z"/>
<path d="M828 1284 c-16 -8 -29 -20 -29 -27 -1 -7 -3 -24 -5 -39 -2 -20 5 -34
26 -51 26 -22 28 -30 28 -90 -1 -75 -2 -79 -44 -96 -31 -12 -33 -11 -82 36
-43 42 -50 54 -49 85 2 62 -44 95 -104 75 -49 -15 -59 -85 -18 -119 12 -10 38
-18 58 -18 31 0 45 -8 85 -49 l49 -49 -16 -39 -15 -38 -68 -2 c-65 -2 -71 0
-96 28 -59 65 -156 12 -127 -70 19 -55 103 -65 135 -16 13 21 23 23 87 22 l72
-1 13 -40 14 -40 -49 -47 c-41 -40 -55 -47 -88 -47 -30 0 -45 -6 -61 -26 -12
-14 -21 -33 -19 -43 2 -10 4 -24 4 -30 1 -15 41 -42 70 -48 35 -7 75 35 73 77
-1 30 7 44 48 88 l50 53 39 -13 40 -13 -1 -70 c-1 -64 -4 -73 -30 -101 -25
-26 -29 -37 -24 -66 7 -42 29 -60 73 -60 74 0 103 87 44 129 -25 18 -27 24
-25 88 1 37 2 70 3 73 0 4 17 12 37 19 l36 13 53 -52 c43 -42 52 -57 46 -73
-20 -53 34 -101 96 -85 37 10 40 13 48 57 8 45 -38 92 -82 85 -26 -4 -38 3
-83 46 -48 44 -52 52 -43 72 6 13 14 31 17 40 7 25 153 22 161 -3 6 -18 46
-39 76 -39 35 0 67 42 63 81 -8 70 -81 91 -133 38 -28 -28 -36 -30 -88 -28
-72 3 -83 7 -83 29 0 11 -4 22 -10 25 -17 11 -11 22 39 74 42 44 55 51 88 51
48 1 71 18 78 58 11 65 -75 112 -125 67 -21 -19 -30 -57 -19 -77 6 -10 -8 -30
-45 -67 l-54 -53 -36 13 c-20 7 -36 15 -37 19 -1 3 -2 34 -3 70 -2 61 0 67 29
96 25 25 31 38 27 62 -8 55 -65 82 -114 56z m65 -33 c4 -1 7 -12 7 -26 0 -33
-33 -51 -54 -29 -19 18 -19 20 -6 44 5 10 18 17 27 15 10 -2 21 -4 26 -4z
m-269 -117 c20 -19 20 -23 0 -45 -23 -25 -54 -13 -54 21 0 25 9 37 32 39 4 1
14 -6 22 -15z m527 6 c23 -13 24 -33 3 -54 -12 -12 -20 -13 -35 -6 -21 12 -25
40 -7 58 15 15 15 15 39 2z m-238 -191 c48 -26 70 -67 63 -115 -20 -121 -158
-139 -213 -29 -41 81 69 187 150 144z m-392 -85 c27 -33 -24 -70 -55 -39 -12
12 -13 21 -6 36 13 23 43 25 61 3z m750 0 c17 -21 0 -49 -32 -49 -24 0 -36 23
-25 51 7 19 40 18 57 -2z m-647 -257 c33 -24 0 -76 -38 -61 -21 8 -25 36 -8
57 18 20 23 21 46 4z m527 3 c21 -12 25 -45 7 -57 -22 -13 -36 -12 -52 6 -14
15 -14 19 0 39 17 25 19 26 45 12z m-263 -112 c18 -18 14 -46 -7 -58 -15 -7
-23 -6 -35 6 -20 19 -20 29 0 48 19 19 26 20 42 4z"/>
</g>
</svg>
